<svg xmlns="http://www.w3.org/2000/svg" xmlns:xlink="http://www.w3.org/1999/xlink" width="64" height="64" viewBox="0 0 64 64" id="paint-brush">
  <defs>
    <path id="path-1" d="M.06 64V.04H64V64z"></path>
  </defs>
  <g id="Page-1" fill="none" fill-rule="evenodd" stroke="none" stroke-width="1">
    <g id="paintbrush2">
      <g id="Group-3">
        <mask id="mask-2" fill="#fff">
          <use xlink:href="#path-1"></use>
        </mask>
        <path id="Fill-1" fill="#DEDECA" d="M64 32c0 17.673-14.327 32-32 32C14.327 64 0 49.673 0 32 0 14.327 14.327 0 32 0c17.673 0 32 14.327 32 32" mask="url(#mask-2)"></path>
      </g>
      <path id="Fill-4" fill="#B3B2A4" d="M18.336 50.739c-2.788-.001-5.284-.697-6.336-1.749 3-1.99 3.733-4.784 4.495-7.015.395-1.161.925-2.234 1.893-3.202 1.351-1.351 3.329-2.115 5.24-2.115.226 0 .451.011.674.033.631-1.863 2.327-4.32 5.689-7.682 6.127-6.127 15.687-13.169 18.994-13.169.382 0 .68.094.88.294 1.934 1.934-6.04 13.041-12.874 19.875-3.37 3.37-5.831 5.067-7.695 5.694a7.619 7.619 0 0 1-.925 4.38 6.916 6.916 0 0 1-1.144 1.529c-2.246 2.246-5.754 3.127-8.891 3.127"></path>
      <path id="Fill-5" fill="#D5915B" d="M29.991 27.009c-6.834 6.834-6.807 9.941-4.874 11.874 1.933 1.933 5.04 1.96 11.874-4.874 6.834-6.834 14.807-17.941 12.874-19.874-1.933-1.933-13.04 6.04-19.874 12.874"></path>
      <path id="Fill-6" fill="#B85756" d="M12 46.99c2.236 2.236 10.984 2.864 15.227-1.378a6.916 6.916 0 0 0 1.144-1.529c-6.637-.198-10.145-2.408-11.876-4.108C15.733 42.206 15 45 12 46.99"></path>
      <path id="Fill-7" fill="#4C5665" d="M27.757 36.243c-2.44-2.441-6.928-1.911-9.369.53-.968.968-1.498 2.041-1.893 3.202 1.731 1.7 5.13 6.942 11.876 4.108 1.39-2.493 1.379-5.848-.614-7.84"></path>
      <path id="Fill-8" fill="#B85756" d="M16.495 39.975s4.021-.764 5.938 2.059c1.917 2.823 5.938 2.049 5.938 2.049l-5.204 2.875-5.209-3.791-1.463-3.192"></path>
    </g>
  </g>
</svg>